<svg width="40" height="40" viewBox="0 0 40 40" fill="none" xmlns="http://www.w3.org/2000/svg">
<path d="M35.5556 4H33.3333V0H28.8889V4H11.1111V0H6.66667V4H4.44444C3.2657 4 2.13524 4.42143 1.30175 5.17157C0.468252 5.92172 0 6.93913 0 8V36C0 37.0609 0.468252 38.0783 1.30175 38.8284C2.13524 39.5786 3.2657 40 4.44444 40H35.5556C38 40 40 38.2 40 36V8C40 5.8 38 4 35.5556 4ZM20 10C23.6889 10 26.6667 12.68 26.6667 16C26.6667 19.32 23.6889 22 20 22C16.3111 22 13.3333 19.32 13.3333 16C13.3333 12.68 16.3111 10 20 10ZM33.3333 34H6.66667V32C6.66667 28 15.5556 25.8 20 25.8C24.4444 25.8 33.3333 28 33.3333 32V34Z" fill="white"/>
</svg>
